<svg xmlns="http://www.w3.org/2000/svg" viewBox="0 0 400 300" width="400" height="300" aria-hidden="true"><defs><linearGradient id="bccweb" x1="0" y1="0" x2="0" y2="1"><stop offset="0" stop-color="#1d3749"/><stop offset="1" stop-color="#101d2d"/></linearGradient><radialGradient id="gccweb" cx="0.62" cy="0.3" r="0.7"><stop offset="0" stop-color="#379ee6" stop-opacity="0.32"/><stop offset="1" stop-color="#000000" stop-opacity="0"/></radialGradient><radialGradient id="vg" cx="0.5" cy="0.4" r="0.82"><stop offset="0.45" stop-color="#000" stop-opacity="0"/><stop offset="0.78" stop-color="#000" stop-opacity="0.1"/><stop offset="1" stop-color="#000" stop-opacity="0.34"/></radialGradient><linearGradient id="fd" x1="0" y1="0" x2="0" y2="1"><stop offset="0" stop-color="#000" stop-opacity="0"/><stop offset="0.58" stop-color="#000" stop-opacity="0.12"/><stop offset="1" stop-color="#000" stop-opacity="0.62"/></linearGradient><filter id="nz"><feTurbulence type="fractalNoise" baseFrequency="0.85" numOctaves="3" stitchTiles="stitch"/><feColorMatrix type="saturate" values="0"/></filter></defs><rect width="400" height="300" fill="url(#bccweb)"/><rect width="400" height="300" fill="url(#gccweb)"/><rect x="50.0" y="83" width="33.1" height="113" rx="3" fill="#2c4d77" stroke="#fff" stroke-opacity="0.13"/><rect x="59.3" y="92" width="15" height="5" rx="2" fill="#fff" opacity="0.26"/><rect x="88.1" y="152" width="33.1" height="44" rx="3" fill="#387199" stroke="#fff" stroke-opacity="0.13"/><rect x="97.4" y="161" width="15" height="5" rx="2" fill="#fff" opacity="0.26"/><rect x="126.2" y="102" width="33.1" height="94" rx="3" fill="#4589ba" stroke="#fff" stroke-opacity="0.13"/><rect x="135.5" y="111" width="15" height="5" rx="2" fill="#fff" opacity="0.26"/><rect x="164.4" y="72" width="33.1" height="124" rx="3" fill="#6691c7" stroke="#fff" stroke-opacity="0.13"/><rect x="173.7" y="81" width="15" height="5" rx="2" fill="#fff" opacity="0.26"/><rect x="202.5" y="85" width="33.1" height="111" rx="3" fill="#2c5877" stroke="#fff" stroke-opacity="0.13"/><rect x="211.8" y="94" width="15" height="5" rx="2" fill="#fff" opacity="0.26"/><rect x="240.6" y="148" width="33.1" height="48" rx="3" fill="#387199" stroke="#fff" stroke-opacity="0.13"/><rect x="249.9" y="157" width="15" height="5" rx="2" fill="#fff" opacity="0.26"/><rect x="278.8" y="101" width="33.1" height="95" rx="3" fill="#4579ba" stroke="#fff" stroke-opacity="0.13"/><rect x="288.0" y="110" width="15" height="5" rx="2" fill="#fff" opacity="0.26"/><rect x="316.9" y="64" width="33.1" height="132" rx="3" fill="#669fc7" stroke="#fff" stroke-opacity="0.13"/><rect x="326.1" y="73" width="15" height="5" rx="2" fill="#fff" opacity="0.26"/><rect width="400" height="300" fill="url(#vg)"/><rect y="180" width="400" height="120" fill="url(#fd)"/><rect width="400" height="300" filter="url(#nz)" opacity="0.045" style="mix-blend-mode:normal"/><rect x="0.5" y="0.5" width="399" height="299" rx="8" fill="none" stroke="#000" stroke-opacity="0.16"/></svg>