<svg xmlns="http://www.w3.org/2000/svg" viewBox="0 0 400 300" width="400" height="300" aria-hidden="true"><defs><linearGradient id="bfluidweiqiweb" x1="0" y1="0" x2="0" y2="1"><stop offset="0" stop-color="#49381d"/><stop offset="1" stop-color="#2d2510"/></linearGradient><radialGradient id="gfluidweiqiweb" cx="0.62" cy="0.3" r="0.7"><stop offset="0" stop-color="#e6a337" stop-opacity="0.32"/><stop offset="1" stop-color="#000000" stop-opacity="0"/></radialGradient><radialGradient id="vg" cx="0.5" cy="0.4" r="0.82"><stop offset="0.45" stop-color="#000" stop-opacity="0"/><stop offset="0.78" stop-color="#000" stop-opacity="0.1"/><stop offset="1" stop-color="#000" stop-opacity="0.34"/></radialGradient><linearGradient id="fd" x1="0" y1="0" x2="0" y2="1"><stop offset="0" stop-color="#000" stop-opacity="0"/><stop offset="0.58" stop-color="#000" stop-opacity="0.12"/><stop offset="1" stop-color="#000" stop-opacity="0.62"/></linearGradient><filter id="nz"><feTurbulence type="fractalNoise" baseFrequency="0.85" numOctaves="3" stitchTiles="stitch"/><feColorMatrix type="saturate" values="0"/></filter></defs><rect width="400" height="300" fill="url(#bfluidweiqiweb)"/><rect width="400" height="300" fill="url(#gfluidweiqiweb)"/><g transform="rotate(-11.0 200.0 218)"><rect x="170.0" y="116" width="60" height="88" rx="6" fill="#eee4d2" stroke="#fff" stroke-opacity="0.22"/><circle cx="200.0" cy="160" r="9" fill="#b8d864" opacity="0.7"/></g><g transform="rotate(-3.7 200.0 218)"><rect x="170.0" y="123" width="60" height="88" rx="6" fill="#eae0c7" stroke="#fff" stroke-opacity="0.22"/><circle cx="200.0" cy="167" r="9" fill="#acd864" opacity="0.7"/></g><g transform="rotate(3.7 200.0 218)"><rect x="170.0" y="123" width="60" height="88" rx="6" fill="#e6d6bc" stroke="#fff" stroke-opacity="0.22"/><circle cx="200.0" cy="167" r="9" fill="#b8d864" opacity="0.7"/></g><g transform="rotate(11.0 200.0 218)"><rect x="170.0" y="116" width="60" height="88" rx="6" fill="#e2d4b1" stroke="#fff" stroke-opacity="0.22"/><circle cx="200.0" cy="160" r="9" fill="#acd864" opacity="0.7"/></g><rect width="400" height="300" fill="url(#vg)"/><rect y="180" width="400" height="120" fill="url(#fd)"/><rect width="400" height="300" filter="url(#nz)" opacity="0.045" style="mix-blend-mode:normal"/><rect x="0.5" y="0.5" width="399" height="299" rx="8" fill="none" stroke="#000" stroke-opacity="0.16"/></svg>