<svg xmlns="http://www.w3.org/2000/svg" viewBox="0 0 400 300" role="img" aria-label="HEXTRIS 封面"><defs><linearGradient id="bg" x1="0" y1="0" x2="0" y2="1"><stop offset="0" stop-color="#04211E"/><stop offset="1" stop-color="#0E7A66"/></linearGradient><radialGradient id="gl" cx="0.5" cy="0.36" r="0.62"><stop offset="0" stop-color="#fff" stop-opacity="0.2"/><stop offset="1" stop-color="#fff" stop-opacity="0"/></radialGradient><radialGradient id="vg" cx="0.5" cy="0.42" r="0.8"><stop offset="0.45" stop-color="#000" stop-opacity="0"/><stop offset="0.78" stop-color="#000" stop-opacity="0.12"/><stop offset="1" stop-color="#000" stop-opacity="0.4"/></radialGradient><linearGradient id="sc" x1="0" y1="0" x2="0" y2="1"><stop offset="0" stop-color="#000" stop-opacity="0"/><stop offset="0.45" stop-color="#000" stop-opacity="0.34"/><stop offset="1" stop-color="#000" stop-opacity="0.8"/></linearGradient><filter id="nz" x="0" y="0" width="100%" height="100%"><feTurbulence type="fractalNoise" baseFrequency="0.9" numOctaves="3" stitchTiles="stitch"/><feColorMatrix type="saturate" values="0"/></filter><filter id="gl2" x="-60%" y="-60%" width="220%" height="220%"><feGaussianBlur stdDeviation="14" result="b"/><feMerge><feMergeNode in="b"/><feMergeNode in="SourceGraphic"/></feMerge></filter></defs>
<rect width="400" height="300" fill="url(#bg)"/>
<rect width="400" height="300" fill="url(#gl)"/>
<g opacity="0.5"><polygon points="130.0,60.0 115.0,86.0 85.0,86.0 70.0,60.0 85.0,34.0 115.0,34.0" fill="none" stroke="#8FE0CE" stroke-width="1.6" opacity="0.28"/><polygon points="196.0,60.0 181.0,86.0 151.0,86.0 136.0,60.0 151.0,34.0 181.0,34.0" fill="none" stroke="#8FE0CE" stroke-width="1.6" opacity="0.28"/><polygon points="262.0,60.0 247.0,86.0 217.0,86.0 202.0,60.0 217.0,34.0 247.0,34.0" fill="none" stroke="#8FE0CE" stroke-width="1.6" opacity="0.28"/><polygon points="328.0,60.0 313.0,86.0 283.0,86.0 268.0,60.0 283.0,34.0 313.0,34.0" fill="none" stroke="#8FE0CE" stroke-width="1.6" opacity="0.28"/><polygon points="96.0,126.0 81.0,152.0 51.0,152.0 36.0,126.0 51.0,100.0 81.0,100.0" fill="none" stroke="#8FE0CE" stroke-width="1.6" opacity="0.28"/><polygon points="162.0,126.0 147.0,152.0 117.0,152.0 102.0,126.0 117.0,100.0 147.0,100.0" fill="none" stroke="#8FE0CE" stroke-width="1.6" opacity="0.28"/><polygon points="230.0,126.0 215.0,152.0 185.0,152.0 170.0,126.0 185.0,100.0 215.0,100.0" fill="none" stroke="#8FE0CE" stroke-width="1.6" opacity="0.28"/><polygon points="296.0,126.0 281.0,152.0 251.0,152.0 236.0,126.0 251.0,100.0 281.0,100.0" fill="none" stroke="#8FE0CE" stroke-width="1.6" opacity="0.28"/><polygon points="362.0,126.0 347.0,152.0 317.0,152.0 302.0,126.0 317.0,100.0 347.0,100.0" fill="none" stroke="#8FE0CE" stroke-width="1.6" opacity="0.28"/>
</g>
<g><polygon points="234.0,96.0 217.0,125.4 183.0,125.4 166.0,96.0 183.0,66.6 217.0,66.6" fill="none" stroke="#A9F2E2" stroke-width="4" opacity="0.90"/><polygon points="200.0,96.0 183.0,125.4 149.0,125.4 132.0,96.0 149.0,66.6 183.0,66.6" fill="none" stroke="#A9F2E2" stroke-width="4" opacity="0.72"/><polygon points="268.0,96.0 251.0,125.4 217.0,125.4 200.0,96.0 217.0,66.6 251.0,66.6" fill="none" stroke="#A9F2E2" stroke-width="4" opacity="0.54"/><polygon points="200.0,158.0 183.0,187.4 149.0,187.4 132.0,158.0 149.0,128.6 183.0,128.6" fill="#3FC7AA" opacity="0.95"/><polygon points="268.0,158.0 251.0,187.4 217.0,187.4 200.0,158.0 217.0,128.6 251.0,128.6" fill="#3FC7AA" opacity="0.75"/><polygon points="236.0,214.0 218.0,245.2 182.0,245.2 164.0,214.0 182.0,182.8 218.0,182.8" fill="#FFCE4F" filter="url(#gl2)"/></g>
<rect width="400" height="300" fill="url(#vg)"/>
<rect width="400" height="300" filter="url(#nz)" opacity="0.05" style="mix-blend-mode:normal"/>
<rect y="216" width="400" height="84" fill="url(#sc)"/>
<rect x="8" y="8" width="384" height="284" rx="8" fill="none" stroke="#fff" stroke-opacity="0.13" stroke-width="1.5"/></svg>