<svg xmlns="http://www.w3.org/2000/svg" viewBox="0 0 400 300" width="400" height="300" aria-hidden="true"><defs><linearGradient id="bjs13kmawlight" x1="0" y1="0" x2="0" y2="1"><stop offset="0" stop-color="#49241d"/><stop offset="1" stop-color="#2d1810"/></linearGradient><radialGradient id="gjs13kmawlight" cx="0.62" cy="0.3" r="0.7"><stop offset="0" stop-color="#e65637" stop-opacity="0.32"/><stop offset="1" stop-color="#000000" stop-opacity="0"/></radialGradient><radialGradient id="vg" cx="0.5" cy="0.4" r="0.82"><stop offset="0.45" stop-color="#000" stop-opacity="0"/><stop offset="0.78" stop-color="#000" stop-opacity="0.1"/><stop offset="1" stop-color="#000" stop-opacity="0.34"/></radialGradient><linearGradient id="fd" x1="0" y1="0" x2="0" y2="1"><stop offset="0" stop-color="#000" stop-opacity="0"/><stop offset="0.58" stop-color="#000" stop-opacity="0.12"/><stop offset="1" stop-color="#000" stop-opacity="0.62"/></linearGradient><filter id="nz"><feTurbulence type="fractalNoise" baseFrequency="0.85" numOctaves="3" stitchTiles="stitch"/><feColorMatrix type="saturate" values="0"/></filter></defs><rect width="400" height="300" fill="url(#bjs13kmawlight)"/><rect width="400" height="300" fill="url(#gjs13kmawlight)"/><circle cx="170" cy="90" r="28" fill="#853423" opacity="0.44" stroke="#fff" stroke-opacity="0.13"/><circle cx="82" cy="194" r="19" fill="#813322" opacity="0.49" stroke="#fff" stroke-opacity="0.13"/><circle cx="346" cy="150" r="34" fill="#bd4a32" opacity="0.68" stroke="#fff" stroke-opacity="0.13"/><circle cx="117" cy="149" r="34" fill="#a9502d" opacity="0.53" stroke="#fff" stroke-opacity="0.13"/><circle cx="142" cy="66" r="27" fill="#cc563e" opacity="0.44" stroke="#fff" stroke-opacity="0.13"/><circle cx="105" cy="132" r="22" fill="#953b28" opacity="0.52" stroke="#fff" stroke-opacity="0.13"/><circle cx="119" cy="219" r="33" fill="#792f20" opacity="0.52" stroke="#fff" stroke-opacity="0.13"/><circle cx="251" cy="106" r="39" fill="#712c1e" opacity="0.55" stroke="#fff" stroke-opacity="0.13"/><circle cx="104" cy="176" r="22" fill="#9d4a2a" opacity="0.54" stroke="#fff" stroke-opacity="0.13"/><circle cx="338" cy="216" r="24" fill="#cf614a" opacity="0.37" stroke="#fff" stroke-opacity="0.13"/><circle cx="234" cy="176" r="37" fill="#cc563e" opacity="0.45" stroke="#fff" stroke-opacity="0.13"/><circle cx="104" cy="123" r="19" fill="#994829" opacity="0.47" stroke="#fff" stroke-opacity="0.13"/><circle cx="212" cy="158" r="23" fill="#cb533a" opacity="0.58" stroke="#fff" stroke-opacity="0.13"/><rect width="400" height="300" fill="url(#vg)"/><rect y="180" width="400" height="120" fill="url(#fd)"/><rect width="400" height="300" filter="url(#nz)" opacity="0.045" style="mix-blend-mode:normal"/><rect x="0.5" y="0.5" width="399" height="299" rx="8" fill="none" stroke="#000" stroke-opacity="0.16"/></svg>