<svg xmlns="http://www.w3.org/2000/svg" viewBox="0 0 400 300" role="img" aria-label="ODD BOT OUT 封面"><rect width="400" height="300" fill="#4F5D52"/><rect x="44" y="96" width="52" height="46" rx="12" fill="#9AA39C"/><line x1="70" y1="82" x2="70" y2="96" stroke="#9AA39C" stroke-width="4"/><circle cx="70" cy="78" r="4" fill="#9AA39C"/><circle cx="58" cy="116" r="6" fill="#23211C"/><circle cx="82" cy="116" r="6" fill="#23211C"/><rect x="104" y="96" width="52" height="46" rx="12" fill="#9AA39C"/><line x1="130" y1="82" x2="130" y2="96" stroke="#9AA39C" stroke-width="4"/><circle cx="130" cy="78" r="4" fill="#9AA39C"/><circle cx="118" cy="116" r="6" fill="#23211C"/><circle cx="142" cy="116" r="6" fill="#23211C"/><rect x="164" y="96" width="52" height="46" rx="12" fill="#FF5A36"/><line x1="190" y1="82" x2="190" y2="96" stroke="#FF5A36" stroke-width="4"/><circle cx="190" cy="78" r="4" fill="#FF5A36"/><circle cx="178" cy="116" r="6" fill="#23211C"/><circle cx="202" cy="116" r="6" fill="#23211C"/><rect x="224" y="96" width="52" height="46" rx="12" fill="#9AA39C"/><line x1="250" y1="82" x2="250" y2="96" stroke="#9AA39C" stroke-width="4"/><circle cx="250" cy="78" r="4" fill="#9AA39C"/><circle cx="238" cy="116" r="6" fill="#23211C"/><circle cx="262" cy="116" r="6" fill="#23211C"/><rect x="284" y="96" width="52" height="46" rx="12" fill="#9AA39C"/><line x1="310" y1="82" x2="310" y2="96" stroke="#9AA39C" stroke-width="4"/><circle cx="310" cy="78" r="4" fill="#9AA39C"/><circle cx="298" cy="116" r="6" fill="#23211C"/><circle cx="322" cy="116" r="6" fill="#23211C"/><rect x="0" y="232" width="400" height="68" fill="#000" opacity="0.42"/><rect x="22" y="250" width="30" height="4" rx="2" fill="#FF5A36"/><text x="22" y="284" font-family="system-ui,-apple-system,'Segoe UI','Noto Sans CJK SC','PingFang SC',sans-serif" font-size="27" font-weight="800" fill="#ffffff" letter-spacing="-0.5">ODD BOT OUT</text></svg>