<svg xmlns="http://www.w3.org/2000/svg" viewBox="0 0 400 300" role="img" aria-label="REMAKE 封面"><defs><linearGradient id="bg" x1="0" y1="0" x2="0" y2="1"><stop offset="0" stop-color="#24103A"/><stop offset="1" stop-color="#8E3FA8"/></linearGradient><radialGradient id="gl" cx="0.5" cy="0.36" r="0.62"><stop offset="0" stop-color="#fff" stop-opacity="0.2"/><stop offset="1" stop-color="#fff" stop-opacity="0"/></radialGradient><radialGradient id="vg" cx="0.5" cy="0.42" r="0.8"><stop offset="0.45" stop-color="#000" stop-opacity="0"/><stop offset="0.78" stop-color="#000" stop-opacity="0.12"/><stop offset="1" stop-color="#000" stop-opacity="0.4"/></radialGradient><linearGradient id="sc" x1="0" y1="0" x2="0" y2="1"><stop offset="0" stop-color="#000" stop-opacity="0"/><stop offset="0.45" stop-color="#000" stop-opacity="0.34"/><stop offset="1" stop-color="#000" stop-opacity="0.8"/></linearGradient><filter id="nz" x="0" y="0" width="100%" height="100%"><feTurbulence type="fractalNoise" baseFrequency="0.9" numOctaves="3" stitchTiles="stitch"/><feColorMatrix type="saturate" values="0"/></filter><filter id="sh" x="-50%" y="-50%" width="200%" height="200%"><feDropShadow dx="0" dy="5" stdDeviation="9" flood-color="#000" flood-opacity="0.35"/></filter></defs>
<rect width="400" height="300" fill="url(#bg)"/>
<rect width="400" height="300" fill="url(#gl)"/>
<g opacity="0.28" stroke="#E3C6FF" stroke-width="2" fill="none" stroke-dasharray="6 7">
<path d="M110 76 q18 -6 34 0"/><path d="M114 168 q20 8 30 0"/><path d="M292 84 q-16 4 -22 14"/></g>
<rect x="74" y="62" width="30" height="30" rx="6" fill="#FF7EA8" opacity="0.9" transform="rotate(-18 89 77)" filter="url(#sh)"/><rect x="300" y="70" width="30" height="30" rx="6" fill="#FFD166" opacity="0.9" transform="rotate(14 315 85)" filter="url(#sh)"/><rect x="86" y="168" width="30" height="30" rx="6" fill="#6ED6C0" opacity="0.9" transform="rotate(10 101 183)" filter="url(#sh)"/>
<g filter="url(#sh)"><rect x="146" y="70" width="110" height="110" rx="12" fill="#fff" opacity="0.05"/></g>
<rect x="152" y="76" width="28" height="28" rx="6" fill="#C77DFF" filter="url(#sh)"/><rect x="152" y="76" width="28" height="9" rx="4" fill="#fff" opacity="0.25"/><rect x="186" y="76" width="28" height="28" rx="6" fill="#C77DFF" filter="url(#sh)"/><rect x="186" y="76" width="28" height="9" rx="4" fill="#fff" opacity="0.25"/><rect x="220" y="76" width="28" height="28" rx="6" fill="none" stroke="#E3C6FF" stroke-width="2" stroke-opacity="0.4" stroke-dasharray="5 5"/><rect x="152" y="110" width="28" height="28" rx="6" fill="#C77DFF" filter="url(#sh)"/><rect x="152" y="110" width="28" height="9" rx="4" fill="#fff" opacity="0.25"/><rect x="186" y="110" width="28" height="28" rx="6" fill="#C77DFF" filter="url(#sh)"/><rect x="186" y="110" width="28" height="9" rx="4" fill="#fff" opacity="0.25"/><rect x="220" y="110" width="28" height="28" rx="6" fill="none" stroke="#E3C6FF" stroke-width="2" stroke-opacity="0.4" stroke-dasharray="5 5"/><rect x="152" y="144" width="28" height="28" rx="6" fill="none" stroke="#E3C6FF" stroke-width="2" stroke-opacity="0.4" stroke-dasharray="5 5"/><rect x="186" y="144" width="28" height="28" rx="6" fill="#C77DFF" filter="url(#sh)"/><rect x="186" y="144" width="28" height="9" rx="4" fill="#fff" opacity="0.25"/><rect x="220" y="144" width="28" height="28" rx="6" fill="none" stroke="#E3C6FF" stroke-width="2" stroke-opacity="0.4" stroke-dasharray="5 5"/>
<g transform="translate(318 196)" opacity="0.9">
<path d="M0 -26 a28 28 0 1 0 16 46 a23 23 0 1 1 -16 -46" fill="none" stroke="#7FE8CE" stroke-width="8" stroke-linecap="round"/>
<path d="M2 -40 l18 7 l-18 7 z" fill="#7FE8CE"/></g>
<rect width="400" height="300" fill="url(#vg)"/>
<rect width="400" height="300" filter="url(#nz)" opacity="0.05" style="mix-blend-mode:normal"/>
<rect y="216" width="400" height="84" fill="url(#sc)"/>
<rect x="8" y="8" width="384" height="284" rx="8" fill="none" stroke="#fff" stroke-opacity="0.13" stroke-width="1.5"/></svg>