<svg xmlns="http://www.w3.org/2000/svg" viewBox="0 0 400 300" width="400" height="300" aria-hidden="true"><defs><linearGradient id="btowergame" x1="0" y1="0" x2="0" y2="1"><stop offset="0" stop-color="#1d493a"/><stop offset="1" stop-color="#102d29"/></linearGradient><radialGradient id="gtowergame" cx="0.62" cy="0.3" r="0.7"><stop offset="0" stop-color="#37e6ac" stop-opacity="0.32"/><stop offset="1" stop-color="#000000" stop-opacity="0"/></radialGradient><radialGradient id="vg" cx="0.5" cy="0.4" r="0.82"><stop offset="0.45" stop-color="#000" stop-opacity="0"/><stop offset="0.78" stop-color="#000" stop-opacity="0.1"/><stop offset="1" stop-color="#000" stop-opacity="0.34"/></radialGradient><linearGradient id="fd" x1="0" y1="0" x2="0" y2="1"><stop offset="0" stop-color="#000" stop-opacity="0"/><stop offset="0.58" stop-color="#000" stop-opacity="0.12"/><stop offset="1" stop-color="#000" stop-opacity="0.62"/></linearGradient><filter id="nz"><feTurbulence type="fractalNoise" baseFrequency="0.85" numOctaves="3" stitchTiles="stitch"/><feColorMatrix type="saturate" values="0"/></filter></defs><rect width="400" height="300" fill="url(#btowergame)"/><rect width="400" height="300" fill="url(#gtowergame)"/><rect x="156" y="54" width="40" height="40" rx="6" fill="#51d6aa" opacity="0.78"/><rect x="156" y="54" width="40" height="40" rx="6" fill="none" stroke="#fff" stroke-opacity="0.16"/><rect x="108" y="102" width="40" height="40" rx="6" fill="#35b6a3" opacity="0.78"/><rect x="108" y="102" width="40" height="40" rx="6" fill="none" stroke="#fff" stroke-opacity="0.16"/><rect x="156" y="102" width="40" height="40" rx="6" fill="#2f745d" opacity="0.94"/><rect x="156" y="102" width="40" height="40" rx="6" fill="none" stroke="#fff" stroke-opacity="0.16"/><rect x="204" y="54" width="40" height="40" rx="6" fill="#94d1c8" opacity="0.94"/><rect x="204" y="54" width="40" height="40" rx="6" fill="none" stroke="#fff" stroke-opacity="0.16"/><rect x="108" y="150" width="40" height="40" rx="6" fill="#94d1c8" opacity="0.94"/><rect x="108" y="150" width="40" height="40" rx="6" fill="none" stroke="#fff" stroke-opacity="0.16"/><rect x="156" y="198" width="40" height="40" rx="6" fill="#35b6a3" opacity="0.94"/><rect x="156" y="198" width="40" height="40" rx="6" fill="none" stroke="#fff" stroke-opacity="0.16"/><rect x="204" y="150" width="40" height="40" rx="6" fill="#2f745d" opacity="0.94"/><rect x="204" y="150" width="40" height="40" rx="6" fill="none" stroke="#fff" stroke-opacity="0.16"/><rect x="252" y="198" width="40" height="40" rx="6" fill="#51d6aa" opacity="0.94"/><rect x="252" y="198" width="40" height="40" rx="6" fill="none" stroke="#fff" stroke-opacity="0.16"/><rect width="400" height="300" fill="url(#vg)"/><rect y="180" width="400" height="120" fill="url(#fd)"/><rect width="400" height="300" filter="url(#nz)" opacity="0.045" style="mix-blend-mode:normal"/><rect x="0.5" y="0.5" width="399" height="299" rx="8" fill="none" stroke="#000" stroke-opacity="0.16"/></svg>