<svg xmlns="http://www.w3.org/2000/svg" viewBox="0 0 400 300" width="400" height="300" aria-hidden="true"><defs><linearGradient id="bwarzone2100" x1="0" y1="0" x2="0" y2="1"><stop offset="0" stop-color="#1d3049"/><stop offset="1" stop-color="#10192d"/></linearGradient><radialGradient id="gwarzone2100" cx="0.62" cy="0.3" r="0.7"><stop offset="0" stop-color="#3785e6" stop-opacity="0.32"/><stop offset="1" stop-color="#000000" stop-opacity="0"/></radialGradient><radialGradient id="vg" cx="0.5" cy="0.4" r="0.82"><stop offset="0.45" stop-color="#000" stop-opacity="0"/><stop offset="0.78" stop-color="#000" stop-opacity="0.1"/><stop offset="1" stop-color="#000" stop-opacity="0.34"/></radialGradient><linearGradient id="fd" x1="0" y1="0" x2="0" y2="1"><stop offset="0" stop-color="#000" stop-opacity="0"/><stop offset="0.58" stop-color="#000" stop-opacity="0.12"/><stop offset="1" stop-color="#000" stop-opacity="0.62"/></linearGradient><filter id="nz"><feTurbulence type="fractalNoise" baseFrequency="0.85" numOctaves="3" stitchTiles="stitch"/><feColorMatrix type="saturate" values="0"/></filter></defs><rect width="400" height="300" fill="url(#bwarzone2100)"/><rect width="400" height="300" fill="url(#gwarzone2100)"/><rect x="50.0" y="141" width="33.1" height="55" rx="3" fill="#2c4377" stroke="#fff" stroke-opacity="0.13"/><rect x="59.3" y="150" width="15" height="5" rx="2" fill="#fff" opacity="0.26"/><rect x="88.1" y="70" width="33.1" height="126" rx="3" fill="#386399" stroke="#fff" stroke-opacity="0.13"/><rect x="97.4" y="79" width="15" height="5" rx="2" fill="#fff" opacity="0.26"/><rect x="126.2" y="79" width="33.1" height="117" rx="3" fill="#4579ba" stroke="#fff" stroke-opacity="0.13"/><rect x="135.5" y="88" width="15" height="5" rx="2" fill="#fff" opacity="0.26"/><rect x="164.4" y="128" width="33.1" height="68" rx="3" fill="#6684c7" stroke="#fff" stroke-opacity="0.13"/><rect x="173.7" y="137" width="15" height="5" rx="2" fill="#fff" opacity="0.26"/><rect x="202.5" y="125" width="33.1" height="71" rx="3" fill="#2c4d77" stroke="#fff" stroke-opacity="0.13"/><rect x="211.8" y="134" width="15" height="5" rx="2" fill="#fff" opacity="0.26"/><rect x="240.6" y="79" width="33.1" height="117" rx="3" fill="#386399" stroke="#fff" stroke-opacity="0.13"/><rect x="249.9" y="88" width="15" height="5" rx="2" fill="#fff" opacity="0.26"/><rect x="278.8" y="70" width="33.1" height="126" rx="3" fill="#4569ba" stroke="#fff" stroke-opacity="0.13"/><rect x="288.0" y="79" width="15" height="5" rx="2" fill="#fff" opacity="0.26"/><rect x="316.9" y="127" width="33.1" height="69" rx="3" fill="#6691c7" stroke="#fff" stroke-opacity="0.13"/><rect x="326.1" y="136" width="15" height="5" rx="2" fill="#fff" opacity="0.26"/><rect width="400" height="300" fill="url(#vg)"/><rect y="180" width="400" height="120" fill="url(#fd)"/><rect width="400" height="300" filter="url(#nz)" opacity="0.045" style="mix-blend-mode:normal"/><rect x="0.5" y="0.5" width="399" height="299" rx="8" fill="none" stroke="#000" stroke-opacity="0.16"/></svg>