<svg xmlns="http://www.w3.org/2000/svg" viewBox="0 0 400 300" role="img" aria-label="WORLDGUESSR 封面"><rect width="400" height="300" fill="#2F8F6B"/><circle cx="200" cy="116" r="66" fill="#F2E9D0"/><circle cx="200" cy="116" r="66" fill="none" stroke="#2F8F6B" stroke-width="3"/><path d="M134 116h132M150 86h100M150 146h100" stroke="#2F8F6B" stroke-width="2" opacity="0.7"/><path d="M200 50c26 22 26 160 0 132M200 50c-26 22-26 160 0 132" stroke="#2F8F6B" stroke-width="2" fill="none" opacity="0.7"/><path d="M214 150 c-14 -6 -22 4 -16 18 6 12 16 18 16 18 0 0 10 -6 16 -18 6 -14 -2 -24 -16 -18Z" fill="#FF5A36"/><circle cx="214" cy="156" r="5" fill="#fff"/><rect x="0" y="232" width="400" height="68" fill="#000" opacity="0.42"/><rect x="22" y="250" width="30" height="4" rx="2" fill="#FF5A36"/><text x="22" y="284" font-family="system-ui,-apple-system,'Segoe UI','Noto Sans CJK SC','PingFang SC',sans-serif" font-size="27" font-weight="800" fill="#ffffff" letter-spacing="-0.5">WORLDGUESSR</text></svg>